<?xml version="1.0" encoding="UTF-8"?>
<svg width="300px" height="300px" viewBox="0 0 300 300" version="1.1" xmlns="http://www.w3.org/2000/svg" xmlns:xlink="http://www.w3.org/1999/xlink">
    <!-- Generator: Sketch 52.4 (67378) - http://www.bohemiancoding.com/sketch -->
    <title>player-placeholder-sp-300</title>
    <desc>Created with Sketch.</desc>
    <defs>
        <rect id="path-1" x="0" y="0" width="300" height="300"></rect>
    </defs>
    <g id="player-placeholder-sp-300" stroke="none" stroke-width="1" fill="none" fill-rule="evenodd">
        <g id="player-placeholder">
            <mask id="mask-2" fill="white">
                <use xlink:href="#path-1"></use>
            </mask>
            <g id="Mask"></g>
            <path d="M37.7880576,582 L42.1274487,568.23572 C44.0560669,546.985603 46.2257625,534.187237 48.6365353,529.840622 C51.0473081,525.494007 51.0473081,516.559299 48.6365353,503.036497 C28.8681981,472.127236 16.5732568,452.808948 11.7517111,445.081633 C6.93016547,437.354318 4.27831537,415.621244 3.79616081,379.882411 C-2.47184853,377.467625 -6.32908504,374.81136 -7.77554874,371.913617 C-9.22201243,369.015873 -3.67723494,336.174784 8.85878373,273.390347 C13.1981748,260.350503 24.2877298,249.725444 42.1274487,241.515172 C59.9671675,233.304899 75.6371909,224.128713 89.1375187,213.986611 L105.048619,203.84451 C107.459392,202.395638 108.664779,197.807545 108.664779,190.08023 C108.664779,182.352914 107.941547,172.452292 106.495083,160.378362 L105.048619,156.756183 C101.673537,160.61984 98.78061,160.61984 96.3698371,156.756183 C92.7536779,150.960696 88.4142868,140.094159 89.1375187,126.329879 C89.6196732,117.153692 92.0304461,115.221863 96.3698371,120.534392 C95.405528,102.664976 95.405528,90.1080887 96.3698371,82.8637306 C97.8163008,71.9971936 105.771851,48.090812 135.424357,44.468633 C165.076863,40.846454 182.434427,58.9573491 186.773818,73.4460652 C191.113209,87.9347813 191.836441,113.290034 191.836441,118.361085 C191.836441,123.432136 200.515223,105.321241 199.068759,126.329879 C197.622296,147.338517 194.729368,148.787389 193.282905,152.409568 C191.836441,156.031747 188.220282,158.92949 186.050586,156.756183 C183.880891,154.582875 184.604122,154.582875 183.157659,160.378362 C181.711195,166.173848 181.711195,183.560307 183.157659,190.08023 C184.604122,196.600152 201.238455,208.915561 236.676815,225.577584 C250.967789,232.296759 271.848221,238.629201 282.963654,253.830581 C287.803917,260.450088 291.661154,273.731411 294.535363,293.67455 C295.981827,313.958752 297.42829,327.240075 298.874754,333.518519 C300.321218,339.796963 303.214145,351.387936 307.553536,368.291438 C309.482155,370.706224 309.482155,372.396574 307.553536,373.362488 C305.624918,374.328403 303.214145,375.535796 300.321218,376.984667 C299.356909,379.399453 298.874754,382.780154 298.874754,387.126769 C298.874754,391.473383 297.910445,405.962099 295.981827,430.592917 L291.642436,445.081633 L282.963654,456.672606 L246.802061,507.383112 L246.802061,513.903034 L250.41822,550.124825 C252.394064,559.81388 253.599451,566.575281 254.03438,570.409027 C254.469309,574.242773 254.469309,578.106431 254.03438,582 L89.1375187,582 L37.7880576,582 Z M242.818182,385 L237,427.533333 L237,451 L250.818182,427.533333 C252.272727,423.133333 253,419.466667 253,416.533333 C253,412.133333 246.454545,409.2 246.454545,400.4 C246.454545,394.533333 245.969697,389.888889 245,386.466667 L242.818182,385 Z M59,440 L59,412.363636 L56,400 L52.25,409.454545 L50,417.454545 C50,422.30303 50.75,425.69697 52.25,427.636364 C53.75,429.575758 56,433.69697 59,440 Z" stroke-opacity="0.2" stroke="#FFFFFF" stroke-width="2" fill-opacity="0.502264493" fill="#000000" mask="url(#mask-2)"></path>
        </g>
    </g>
</svg>